PathFileType	4	(X/Y/Z)	C:/Users/beibeiliu/ov580/test_trc\sequence.30_training_dense_left.trc
DataRate	CameraRate	NumFrames	NumMarkers	Units	OrigDataRate	OrigDataStartFrame	OrigNumFrames
120	120	7	19	mm	120	45	354
Frame#	Time	ThumbCMC			ThumbMCP			ThumbIP			ThumbTip			IndexMCP			IndexPIP			IndexTip			MiddleMCP			MiddlePIP			MiddleTip			RingMCP			RingPIP			RingTip			PinkyMCP			PinkyPIP			PinkyTip			BackHand1			BackHand2			BackHand3	
		X0	Y0	Z0	X1	Y1	Z1	X2	Y2	Z2	X3	Y3	Z3	X4	Y4	Z4	X5	Y5	Z5	X6	Y6	Z6	X7	Y7	Z7	X8	Y8	Z8	X9	Y9	Z9	X10	Y10	Z10	X11	Y11	Z11	X12	Y12	Z12	X13	Y13	Z13	X14	Y14	Z14	X15	Y15	Z15	X16	Y16	Z16	X17	Y17	Z17	X18	Y18	Z18	
44	0.366667	-180.345	-2.39378	48.7747	-162.916	-4.85313	22.8398	-157.907	2.6921	-2.73848	-160.831	5.70263	-20.6455	-182.53	13.7821	-14.6815	-188.036	-12.6165	-20.2867	-190.419	-10.5156	12.0981	-202.073	11.3922	-14.8173	-205.207	-18.4002	-14.3791	-199.091	-14.1961	18.9194	-221.582	8.80165	-16.742	-217.905	-15.227	-13.7084	-214.035	-13.5772	16.8818	-240.023	27.1288	0.994645	-247.531	30.9088	-20.7302	-248.688	36.7479	-39.6023	-219.228	28.6196	34.6106	-217.788	21.1791	59.1258	-191.448	25.0668	45.9164	
45	0.375	-179.363	-2.34705	46.7423	-165.594	-3.4472	20.7551	-163.582	0.254509	0.851807	-159.853	2.80572	-17.5949	-183.539	13.3587	-15.6675	-188.623	-13.7019	-18.1353	-190.419	-12.0576	11.2756	-204.005	8.95597	-17.0125	-208.609	-19.8415	-10.6256	-202.241	-16.1791	18.6061	-219.106	11.5625	-14.9096	-218.315	-14.1052	-13.0373	-214.074	-11.2781	18.4475	-243.227	29.547	-2.30534	-249.661	30.9589	-17.9038	-251.423	36.6946	-34.7792	-223.713	29.4993	35.5642	-218.928	22.3231	62.1289	-194.25	23.4022	47.8227	
46	0.383333	-178.316	-0.27644	45.5462	-164.724	-4.75637	22.1452	-163.62	1.11222	0.58041	-164.907	6.09972	-21.2424	-184.543	14.1493	-15.2027	-192.249	-12.2274	-21.3212	-196.371	-13.5141	10.027	-203.761	9.77939	-17.5351	-207.154	-21.0706	-11.2639	-204.52	-16.6678	18.3809	-226.47	12.5808	-13.7576	-219.091	-14.6862	-12.1498	-217.717	-13.8031	17.0326	-244.804	30.9499	-2.06682	-247.044	32.5399	-14.8106	-252.632	35.2694	-33.9962	-220.097	30.9156	34.0416	-221.574	21.9978	61.5584	-193.984	23.4989	46.9755	
47	0.391667	-179.321	-3.03787	46.557	-170.999	-3.91662	21.9318	-162.069	1.38194	-2.26722	-161.103	3.04474	-20.6662	-186.602	11.9919	-17.7194	-191.56	-12.1835	-21.4409	-193.887	-17.5592	10.182	-206.918	11.9918	-15.1492	-212.392	-19.348	-13.2112	-204.818	-17.5509	18.7843	-226.247	9.95568	-15.7436	-221.142	-13.974	-11.5878	-218.109	-13.0051	18.2102	-243.13	29.7589	0.810898	-250.35	32.1343	-17.3869	-254.494	35.9441	-37.1899	-222.744	28.3524	36.5947	-219.554	24.3314	59.4472	-194.537	24.3844	47.6258	
48	0.4	-182.319	-4.61221	49.5201	-172.133	-5.72444	23.2931	-162.797	-0.0358421	-1.00178	-166.272	5.17451	-20.5636	-186.79	12.928	-16.1566	-196.022	-13.2967	-21.1305	-197.892	-19.2591	8.98845	-209.344	11.3462	-14.6561	-209.782	-20.3118	-12.4302	-203.784	-17.2088	19.4241	-223.376	12.761	-11.954	-225.991	-15.5364	-9.17723	-215.319	-9.91372	18.3117	-246.934	30.9597	-1.48051	-250.328	33.4783	-19.9511	-254.053	36.9629	-33.9119	-224.214	30.4669	37.2978	-222.208	23.9745	58.3917	-199.354	24.1961	49.0526	
49	0.408333	-179.2	-4.08968	46.2709	-172.194	-5.29958	23.8682	-166.156	0.105863	0.825647	-164.243	4.43749	-20.7126	-188.233	10.9504	-17.3749	-195.189	-15.5258	-18.8308	-196.166	-20.6226	8.72978	-208.284	9.98386	-16.032	-213.012	-19.046	-12.4172	-209.536	-16.1859	21.8592	-226.304	12.3309	-13.7603	-223.448	-15.3243	-8.61168	-219.662	-12.875	18.9038	-241.377	29.744	3.71135	-246.845	32.923	-16.5625	-256.925	39.2399	-34.4766	-221.963	32.495	35.1977	-219.631	22.102	60.1936	-196.805	23.6766	47.7396	
50	0.416667	-181.411	-6.3791	50.1726	-170.462	-5.18645	22.7233	-167.017	-0.670977	1.25919	-162.134	2.46288	-20.2352	-185.52	12.4754	-12.9993	-198.731	-14.3902	-19.8294	-196.571	-22.5109	7.6584	-208.988	10.3368	-14.608	-213.786	-19.3062	-12.3206	-211.044	-19.1848	19.0263	-224.872	13.9482	-11.9016	-226.079	-15.5668	-7.28719	-218.734	-10.2687	20.6185	-244.548	31.1278	-0.0203817	-251.056	33.7155	-14.2907	-253.07	39.3838	-31.9362	-221.867	31.4833	37.4758	-222.135	25.4403	60.5875	-196.929	24.7162	47.8377	
